<svg xmlns="http://www.w3.org/2000/svg" width="24" height="24" fill="none" viewBox="0 0 24 24"><path fill="#3f56c9" d="M22.265 1.586C20.596 0 17.925 0 12.659 0h-1.315C6.782 0 4.169 0 2.467 1.03l12.675 5.591c.927.41 2.012.201 2.72-.525l4.406-4.51zM1.03 21.536C0 19.834 0 17.218 0 12.659v-1.315c0-5.267 0-7.94 1.586-9.606l4.51 4.406c.726.708.933 1.793.525 2.72zM21.536 22.97C19.834 24 17.218 24 12.659 24h-1.315c-5.267 0-7.94 0-9.606-1.586l4.406-4.51a2.43 2.43 0 0 1 2.72-.525l12.675 5.59zM22.973 2.467c1.03 1.702 1.03 4.319 1.03 8.877v1.315c0 5.266 0 7.94-1.586 9.606l-4.51-4.406a2.43 2.43 0 0 1-.525-2.72l5.59-12.675z"/></svg>