<svg width="24" height="24" viewBox="0 0 24 24" fill="none" xmlns="http://www.w3.org/2000/svg"><g id="logo-AnexMiner">
<path id="Vector" d="M6.27311 5.42496C6.28959 5.29473 6.33109 5.18225 6.38377 5.04926C6.44714 4.91015 6.45475 4.66671 6.65344 4.65791C6.65909 4.65766 6.66902 4.66205 6.66924 4.66921C6.67926 5.00519 6.49704 5.35339 6.50011 5.69158C6.50788 5.98417 6.5007 6.28318 6.50327 6.57599C6.50614 6.90092 6.47019 7.07969 6.54736 7.39895L6.54827 7.40385C6.56775 7.51324 6.54104 7.64548 6.56379 7.74274C6.76805 8.61591 7.12546 9.43325 7.69221 10.1345C7.71006 10.1566 7.78081 10.24 7.7877 10.2568C7.94038 10.334 8.05069 10.4367 8.16503 10.5602C8.23578 10.6366 8.26368 10.65 8.27347 10.7563C8.81722 11.2759 9.62352 11.7068 10.3646 11.8839C10.6607 11.9547 11.0826 11.918 11.3899 11.919C11.6098 11.9197 11.835 11.9198 12.0561 11.9271C12.7416 11.8572 13.4567 11.558 14.0308 11.183C14.8161 10.6655 15.436 9.93296 15.8166 9.07287C15.8785 8.92988 15.914 8.78537 15.9841 8.63417C16.0862 8.41399 16.1229 8.14457 16.1727 7.90763C16.1731 7.93919 16.1725 7.95358 16.1803 7.9851L16.1904 7.9802C16.218 7.90623 16.2283 7.81906 16.2357 7.74076L16.2587 7.73125C16.3034 7.73977 16.3353 7.76206 16.3741 7.78522L16.397 7.76485C16.422 7.769 16.4362 7.78079 16.4619 7.78607C16.5417 7.80249 16.6349 7.80827 16.7115 7.8335L16.7179 7.83565C16.7746 7.85415 16.7683 7.90989 16.8219 7.93217C16.8458 7.91447 16.8735 7.89777 16.8987 7.88169C16.9144 7.8505 16.938 7.80366 16.9487 7.77124C16.9597 7.73779 16.9376 7.72246 16.9595 7.68578C16.9749 7.69591 16.9632 7.73318 16.9721 7.771L17.0018 7.74304L16.9988 7.75065C17.0231 7.73375 17.0199 7.72788 17.0326 7.69744C17.0077 7.97085 16.9381 8.27512 16.8727 8.54119C16.7637 8.98499 16.6271 9.387 16.4177 9.79241C16.1844 10.2445 15.9265 10.6571 15.5752 11.0304C15.4556 11.1614 15.3219 11.3293 15.1835 11.4438C14.7556 11.8029 14.2866 12.11 13.7864 12.3587C13.5578 12.4715 13.3027 12.5657 13.0674 12.666C13.0087 12.6911 12.9015 12.701 12.8497 12.735C12.7774 12.7826 12.7289 12.8641 12.6611 12.9249C12.7098 13.0591 12.7633 13.1814 12.8135 13.313L13.1979 14.3463C13.4315 14.9765 13.638 15.6204 13.8847 16.2461C13.9284 16.357 13.9719 16.4681 14.0134 16.5798L14.8509 18.8895C14.9686 19.2235 15.1138 19.5522 15.221 19.8913C15.2434 19.9619 15.3199 20.1011 15.3299 20.1642C15.3228 20.2935 15.4833 20.5532 15.4826 20.8367C14.9559 20.8033 14.4368 20.8146 13.9099 20.8275C13.8834 20.8281 13.8045 20.8233 13.7811 20.805C13.7126 20.7079 13.6753 20.4675 13.6127 20.3743C13.5012 20.1396 13.4568 19.7618 13.3459 19.5139C13.2853 19.3786 13.1855 19.298 13.2089 19.1461L13.2231 19.1445L13.2169 19.134C13.0699 19.0934 10.5747 19.104 10.4107 19.128C10.271 19.1397 10.2582 19.407 10.2199 19.5206C10.1436 19.75 10.0965 19.9803 10.0463 20.2156C10.0297 20.2938 9.93111 20.396 9.90485 20.5023C9.8622 20.675 9.96421 20.7857 9.76199 20.8404C9.67015 20.8254 9.51239 20.8251 9.41329 20.8228C9.18551 20.817 8.95762 20.8161 8.7298 20.82C8.56422 20.8233 8.33007 20.8351 8.16899 20.8221C8.13197 20.7462 8.21286 20.6112 8.19844 20.5222C8.2451 20.4446 8.33382 20.1719 8.36829 20.0777L8.71983 19.1196L10.2111 14.8795C10.3061 14.6041 10.4209 14.3274 10.5233 14.0554C10.5837 13.8951 10.6283 13.7068 10.6878 13.5421C10.7594 13.3441 10.859 13.0972 10.9041 12.8927C10.6577 12.788 10.3638 12.7695 10.1086 12.6949C9.48363 12.5121 8.8936 12.1602 8.38147 11.7649C7.59337 11.1562 6.97043 10.3595 6.56961 9.44792C6.5542 9.41277 6.5371 9.36779 6.52589 9.33043C6.46253 9.11402 6.34562 8.90103 6.30115 8.68147C6.2538 8.44769 6.20688 8.21476 6.16308 7.98019C6.05198 7.58764 6.0294 7.22898 6.04286 6.82292C6.04937 6.62664 6.01271 6.40337 6.11357 6.22595C6.12799 6.20057 6.13936 6.13766 6.14482 6.10737C6.15105 5.93888 6.24065 5.60751 6.27311 5.42496ZM11.6172 15.0914C11.5436 15.3529 10.8393 17.5562 10.8548 17.6187C10.9324 17.6451 11.6657 17.626 11.8043 17.6263C11.9728 17.6267 12.56 17.6384 12.6985 17.6126C12.5948 17.4287 12.5592 17.2741 12.4867 17.0838C12.2645 16.4999 12.1323 15.8897 11.9036 15.3074C11.884 15.2576 11.8671 15.1942 11.8511 15.1422L11.8514 15.1469C11.8354 15.1017 11.7996 14.952 11.7856 14.9376L11.7654 14.9365C11.7145 14.9948 11.6822 15.0536 11.6172 15.0914Z" fill="#ED1A18"/>
<path id="Vector_2" d="M6.27311 5.42496C6.28959 5.29473 6.33109 5.18225 6.38377 5.04926C6.44714 4.91015 6.45475 4.66671 6.65344 4.65791C6.65909 4.65766 6.66902 4.66205 6.66924 4.66921C6.67926 5.00519 6.49704 5.35339 6.50011 5.69158C6.50788 5.98417 6.5007 6.28318 6.50327 6.57599C6.50614 6.90092 6.47019 7.07969 6.54736 7.39895C6.52287 7.50323 6.54025 7.51584 6.53863 7.61845C6.52882 7.59428 6.52941 7.55354 6.52059 7.52733C6.4439 7.2994 6.43732 7.03708 6.41485 6.79467L6.41253 6.78573C6.3876 6.6871 6.38508 6.58704 6.37375 6.48728C6.36374 6.39917 6.38478 6.24274 6.26743 6.24151C6.13663 6.30454 6.16542 6.83879 6.13807 6.97846C6.10656 7.13943 6.16192 7.37004 6.14253 7.5347C6.15353 7.68298 6.16038 7.83153 6.16308 7.98019C6.05198 7.58764 6.0294 7.22898 6.04286 6.82292C6.04937 6.62664 6.01271 6.40337 6.11357 6.22595C6.12799 6.20058 6.13936 6.13766 6.14482 6.10737C6.15105 5.93888 6.24065 5.60751 6.27311 5.42496Z" fill="#F2321D"/>
<path id="Vector_3" d="M6.27311 5.42496C6.28959 5.29473 6.3311 5.18225 6.38377 5.04926C6.44715 4.91015 6.45475 4.66671 6.65345 4.65791C6.65909 4.65766 6.66903 4.66205 6.66924 4.66921C6.67927 5.00519 6.49705 5.35339 6.50011 5.69158L6.48467 5.60732L6.47603 5.6079L6.44549 5.70035C6.44907 5.6271 6.4447 5.56516 6.42873 5.49375C6.41427 5.42906 6.46495 5.39973 6.42613 5.34487L6.4016 5.34672C6.34696 5.38854 6.37549 5.48558 6.28742 5.52161C6.27321 5.50401 6.27489 5.45254 6.27311 5.42496Z" fill="#D48F82"/>
<path id="Vector_4" d="M6.44548 5.70039L6.47603 5.60794L6.48467 5.60736L6.50011 5.69162C6.50788 5.9842 6.5007 6.28322 6.50327 6.57603C6.50613 6.90096 6.47018 7.07973 6.54736 7.39899C6.52287 7.50327 6.54025 7.51588 6.53863 7.61848C6.52882 7.59432 6.52941 7.55358 6.52059 7.52737C6.4439 7.29944 6.43732 7.03711 6.41485 6.7947C6.42128 6.6559 6.39631 6.45713 6.39764 6.30876C6.39959 6.09122 6.42038 5.91615 6.44548 5.70039Z" fill="#E8D8DC"/>
<path id="Vector_5" d="M6.14482 6.10736C6.16245 6.16762 6.14451 6.36416 6.14025 6.43743C6.12659 6.67207 6.08618 7.32764 6.14253 7.53469C6.15353 7.68297 6.16038 7.83152 6.16308 7.98018C6.05198 7.58763 6.0294 7.22897 6.04286 6.82291C6.04937 6.62663 6.01271 6.40336 6.11357 6.22594C6.12799 6.20057 6.13936 6.13766 6.14482 6.10736Z" fill="#B2A7AD"/>
<path id="Vector_6" d="M7.7877 10.2568C7.94039 10.334 8.0507 10.4367 8.16504 10.5602C8.23579 10.6366 8.26368 10.65 8.27347 10.7563C8.12515 10.6425 7.8955 10.4011 7.7877 10.2568Z" fill="#7A7A81"/>
<path id="Vector_7" d="M12.233 4.49463C12.9742 4.36087 13.6841 4.85149 13.821 5.59215C13.9579 6.3328 13.4703 7.04475 12.7302 7.18477C11.9857 7.32562 11.2685 6.83444 11.1308 6.08935C10.9931 5.34427 11.4873 4.62921 12.233 4.49463Z" fill="#FF860F"/>
<path id="Vector_8" d="M15.074 7.69266L15.0976 7.69468C15.1371 7.59288 15.1594 7.47506 15.2995 7.53912C15.3397 7.5575 15.3359 7.57235 15.3778 7.5643C15.4088 7.53617 15.4316 7.48689 15.4451 7.48566C15.4503 7.55699 15.4407 7.72837 15.4779 7.77894C15.3301 8.54016 15.059 9.20464 14.532 9.7963C14.4748 9.86051 14.4258 9.94788 14.3687 10.0138C14.1884 10.2138 14.0322 10.3372 13.824 10.4871C12.9917 11.0864 12.0329 11.3995 11.0045 11.2753C10.8484 11.2564 10.6764 11.247 10.5163 11.2145C9.96672 11.1031 9.38367 10.7291 8.94027 10.3925C8.83874 10.3365 8.81983 10.3139 8.73694 10.2376C8.53055 10.0477 8.40717 9.97469 8.29162 9.71177C8.24767 9.6847 7.97056 9.3141 7.93646 9.24889C7.81928 9.10204 7.79153 9.00736 7.78379 8.82524C7.99388 8.92036 8.01932 8.94404 8.1455 9.14117C8.22741 9.23124 8.28865 9.35188 8.37337 9.44143C8.41701 9.48756 8.49194 9.48709 8.52479 9.53853C8.54704 9.57713 8.58972 9.62469 8.62526 9.65128C8.67674 9.67687 8.85801 9.82199 8.92097 9.86376C9.14593 10.0105 9.38124 10.1407 9.62502 10.2534C9.8729 10.3674 10.2871 10.4752 10.5589 10.5245C10.6475 10.5406 10.8846 10.5398 10.9878 10.5452C11.4958 10.572 11.9589 10.5483 12.4386 10.3606C12.9169 10.1733 13.3717 9.95397 13.76 9.61173C13.9046 9.4842 14.0514 9.38466 14.1785 9.22195C14.223 9.16496 14.2198 9.10548 14.2603 9.0471C14.2847 9.00722 14.3835 8.97537 14.4046 8.95027C14.6475 8.66255 14.8204 8.34248 14.9573 7.99282C14.9947 7.89713 15.0311 7.78646 15.074 7.69266Z" fill="#F2321D"/>
<path id="Vector_9" d="M7.78379 8.82526C7.99388 8.92038 8.01932 8.94406 8.1455 9.14119C8.22741 9.23126 8.28865 9.3519 8.37337 9.44146C8.41701 9.48758 8.49194 9.48711 8.52479 9.53855C8.54704 9.57715 8.58972 9.62471 8.62526 9.6513C8.48436 9.67699 8.48091 9.53807 8.40341 9.52203C8.34898 9.54914 8.33228 9.61399 8.30734 9.67301C8.39361 9.75743 8.43601 9.80038 8.51422 9.8949C8.51307 9.91271 8.51345 9.92105 8.50904 9.93857C8.45226 9.88037 8.34992 9.74262 8.29162 9.71179C8.24767 9.68473 7.97056 9.31412 7.93646 9.24891C7.81928 9.10206 7.79153 9.00738 7.78379 8.82526Z" fill="#DF7B74"/>
<path id="Vector_10" d="M7.78379 8.82526C7.99388 8.92038 8.01932 8.94406 8.1455 9.14119C8.0689 9.13276 7.99413 9.034 7.9265 9.17671C7.9249 9.21813 7.93459 9.22221 7.93646 9.24891C7.81928 9.10206 7.79153 9.00738 7.78379 8.82526Z" fill="#D48F82"/>
<path id="Vector_11" d="M8.29162 9.71179C8.34992 9.74262 8.45226 9.88037 8.50904 9.93857C8.56167 9.99885 8.93669 10.3682 8.94027 10.3925C8.83874 10.3365 8.81982 10.3139 8.73694 10.2376C8.53055 10.0477 8.40717 9.97471 8.29162 9.71179Z" fill="#E8D8DC"/>
<path id="Vector_12" d="M7.95028 5.46879C7.96155 5.40881 7.95029 5.24269 7.96743 5.20409C8.01896 5.08804 8.18097 4.27422 8.3925 4.43171C8.42303 4.61326 8.33509 4.83065 8.30336 5.01016C8.29025 5.08424 8.28903 5.14708 8.28722 5.2224C8.28706 5.48573 8.29249 5.69521 8.34222 5.95442C8.3577 6.03511 8.32673 6.16913 8.35021 6.26017C8.3743 6.35355 8.39774 6.44278 8.42963 6.53425C8.60268 7.08357 8.902 7.67305 9.30396 8.0904C9.35476 8.14315 9.43508 8.19307 9.48594 8.24367C9.59312 8.35033 9.65474 8.42745 9.77931 8.51983C10.1703 8.80978 10.6532 8.95563 11.1258 9.04804C11.3095 9.057 11.5514 9.08692 11.7317 9.07368C12.1508 9.04288 12.5891 8.96111 12.9831 8.81541C13.0597 8.78706 13.1414 8.72989 13.2166 8.69519C13.2404 8.68424 13.3516 8.61744 13.3673 8.6148C13.5633 8.45299 13.7319 8.30252 13.9084 8.11888C13.9305 8.09585 13.9379 8.09468 13.967 8.09275C14.0533 8.13118 14.0591 8.213 14.0104 8.28451C13.89 8.46161 13.7173 8.6646 13.5483 8.7936C13.4994 8.85413 13.3275 8.97549 13.2619 9.02736C12.7873 9.40264 12.3289 9.63212 11.7304 9.738C11.459 9.78477 11.184 9.78167 10.9123 9.76199C10.3258 9.71949 9.76906 9.49096 9.30623 9.13186C9.26402 9.09911 9.18949 9.06651 9.15225 9.03364C8.80936 8.73076 8.51207 8.36187 8.30674 7.95203C8.24605 7.83038 8.2095 7.68379 8.15769 7.55886C8.05065 7.30082 7.99614 7.06983 7.95235 6.7944C7.94012 6.74689 7.91705 6.69744 7.90227 6.64976C7.85452 6.49581 7.8483 6.33708 7.83769 6.17619C7.82011 5.90939 7.82906 5.70923 7.95028 5.46879Z" fill="#F6421E"/>
<path id="Vector_13" d="M7.95029 5.46879C7.96156 5.40881 7.9503 5.24269 7.96743 5.20409C8.01896 5.08804 8.18098 4.27422 8.3925 4.43171C8.42304 4.61326 8.3351 4.83065 8.30336 5.01016C8.29026 5.08424 8.28904 5.14708 8.28723 5.2224C8.27284 5.15718 8.27484 5.11798 8.2748 5.05179C8.24548 5.02077 8.22442 4.9912 8.18293 4.98401C8.03237 4.99556 8.00113 5.34948 7.96282 5.47075L7.95029 5.46879Z" fill="#E5A975"/>
<path id="Vector_14" d="M13.3673 8.61477C13.5633 8.45295 13.7319 8.30248 13.9084 8.11884C13.9305 8.09582 13.9379 8.09464 13.967 8.09271C14.0533 8.13115 14.0591 8.21296 14.0104 8.28447C13.89 8.46158 13.7173 8.66457 13.5483 8.79357C13.5492 8.71232 13.6952 8.66614 13.7026 8.57281C13.6767 8.53068 13.6245 8.53429 13.5909 8.49985C13.5511 8.45898 13.4786 8.61643 13.3673 8.61477Z" fill="#D48F82"/>
<path id="Vector_15" d="M7.95028 5.46875L7.96282 5.47071C7.94569 5.7495 7.93563 5.95829 7.9438 6.2399C7.94736 6.36205 7.96125 6.69407 7.95235 6.79435C7.94012 6.74685 7.91705 6.6974 7.90227 6.64972C7.85452 6.49577 7.8483 6.33704 7.83769 6.17615C7.82011 5.90935 7.82906 5.70919 7.95028 5.46875Z" fill="#B59EA0"/>
<path id="Vector_16" d="M9.45254 7.11405C9.42137 7.07575 9.34023 6.9267 9.30533 6.87218C8.98101 6.36533 8.89842 5.87554 8.91717 5.28338C8.93855 4.60886 9.10256 4.19371 9.49378 3.6465C9.52275 3.62724 9.51795 3.54849 9.531 3.53332C9.70076 3.33578 9.88194 3.18688 10.1004 3.04641C10.301 2.9174 10.4658 2.7942 10.7044 2.73634C10.8038 2.70888 10.9137 2.65246 11.0137 2.63262C11.3076 2.57434 11.6212 2.49881 11.9203 2.50045C12.0547 2.50119 12.0194 2.52074 12.1279 2.55994C12.2147 2.59128 12.5711 2.65049 12.6365 2.72323C12.8826 2.77424 13.126 2.90767 13.3485 3.02455C13.4416 3.07346 13.519 3.1352 13.5295 3.25114C13.5262 3.25947 13.5207 3.28236 13.5114 3.28175C13.2118 3.26223 12.9243 3.08504 12.618 3.07275C12.4103 3.06444 12.2275 3.04015 12.0255 3.06718C11.4021 3.09211 10.6429 3.41304 10.2045 3.85788C9.9613 4.14365 9.75565 4.46047 9.65682 4.82587C9.64337 4.87356 9.5878 5.04562 9.60044 5.08741C9.65311 5.26166 9.56531 5.35086 9.57125 5.50335C9.58376 5.73163 9.61782 5.95105 9.62354 6.18101C9.62518 6.24743 9.68403 6.40021 9.70393 6.46791C9.79406 6.77443 9.96706 7.09917 10.1739 7.344C10.2655 7.38609 10.4288 7.57255 10.5321 7.63687C10.6551 7.71344 11.0946 7.94199 11.1065 8.09404L11.0893 8.11086C10.9655 8.14685 10.492 7.93137 10.3662 7.86268C10.0661 7.6989 9.56315 7.46129 9.45254 7.11405Z" fill="#FB7D1B"/>
<path id="Vector_17" d="M9.45254 7.11407C9.52543 7.15795 9.73698 7.41357 9.83343 7.4884C9.99186 7.6113 10.1786 7.73536 10.3502 7.83533C10.384 7.78443 10.4501 7.71858 10.4547 7.68341C10.3832 7.60949 10.2177 7.44499 10.1725 7.36548L10.1739 7.34402C10.2655 7.38611 10.4287 7.57257 10.5321 7.63689C10.6551 7.71346 11.0946 7.94201 11.1065 8.09406L11.0893 8.11088C10.9655 8.14687 10.492 7.93139 10.3662 7.8627C10.0661 7.69892 9.56315 7.46131 9.45254 7.11407Z" fill="#D48F82"/>
<path id="Vector_18" d="M12.6365 2.72327C12.8826 2.77427 13.126 2.9077 13.3485 3.02459C13.4416 3.0735 13.519 3.13523 13.5295 3.25118C13.5262 3.25951 13.5207 3.2824 13.5114 3.28179C13.2118 3.26226 12.9243 3.08508 12.618 3.07279C12.4103 3.06447 12.2275 3.04019 12.0255 3.06722C12.1272 2.97748 12.6071 3.03868 12.7413 3.04933C12.7481 3.04987 12.8051 3.02751 12.829 3.02202C12.8507 3.03778 12.8517 3.03943 12.8774 3.04488C12.9122 3.02912 12.9246 2.96753 12.965 2.9277C12.9554 2.86836 12.6964 2.79805 12.6365 2.72327Z" fill="#E5A975"/>
<path id="Vector_19" d="M13.3755 2.13005C13.1914 2.02663 12.9573 1.96468 12.7595 1.89139C12.6309 1.84375 12.126 1.77833 12.0945 1.63407C12.2022 1.36637 13.7147 1.89174 13.9154 2.06624C14.0706 2.11478 14.5112 2.37579 14.657 2.47423C14.7535 2.53931 14.8644 2.60212 14.962 2.66746C15.0205 2.70724 15.0699 2.75738 15.1254 2.80106C15.1492 2.81981 15.2188 2.835 15.2335 2.85068C15.3673 2.99397 15.5187 3.13059 15.6488 3.27626C15.7573 3.39776 15.8384 3.55961 15.9318 3.69328C16.2628 4.15964 16.5504 4.63564 16.7196 5.18566C16.7901 5.41469 16.883 5.65429 16.9369 5.89127C17.0427 6.37743 17.0679 6.88676 17.0516 7.38263C17.0482 7.48541 17.0437 7.59514 17.0326 7.69742C17.0199 7.72787 17.0231 7.73373 16.9988 7.75064L17.0018 7.74302L16.9721 7.77098C16.9632 7.73316 16.9749 7.69589 16.9595 7.68576C16.9376 7.72245 16.9597 7.73777 16.9487 7.77122C16.938 7.80364 16.9144 7.85048 16.8987 7.88167C16.8734 7.89775 16.8458 7.91445 16.8219 7.93215C16.7683 7.90987 16.7746 7.85413 16.7179 7.83563L16.7115 7.83349C16.6349 7.80825 16.5417 7.80247 16.4619 7.78606C16.4362 7.78077 16.422 7.76898 16.397 7.76483L16.3741 7.78521C16.3353 7.76204 16.3034 7.73975 16.2587 7.73123L16.2357 7.74074C16.2283 7.81904 16.218 7.90621 16.1904 7.98018L16.1803 7.98508C16.1725 7.95356 16.1731 7.93917 16.1727 7.90761C16.184 7.87723 16.2147 7.64898 16.2187 7.61083C16.2924 6.9115 16.2292 6.23253 16.076 5.54703C16.0172 5.28368 15.84 4.85457 15.7253 4.60148C15.6827 4.50947 15.5927 4.41785 15.5478 4.33125C15.1165 3.49782 14.444 2.80852 13.6599 2.29972C13.5678 2.23994 13.4673 2.19066 13.3755 2.13005Z" fill="#FB7D1B"/>
<path id="Vector_20" d="M13.3755 2.13005C13.1914 2.02663 12.9573 1.96468 12.7595 1.89139C12.6309 1.84375 12.126 1.77833 12.0945 1.63407C12.2022 1.36637 13.7147 1.89174 13.9154 2.06624C13.8232 2.05955 13.6464 1.94879 13.5507 1.92143C13.483 1.90209 13.4273 1.90962 13.3638 1.88683C13.3122 1.86498 13.3017 1.78008 13.2407 1.81148C13.2322 1.85577 13.2471 1.85837 13.2839 1.8826C13.2997 1.94566 13.2283 1.95018 13.2198 2.00801C13.2671 2.09281 13.3439 2.04097 13.3755 2.13005Z" fill="#E5A975"/>
<path id="Vector_21" d="M15.253 6.1585C15.2443 6.08211 15.2439 5.98176 15.2364 5.90186C15.2278 5.81021 15.1903 5.62429 15.2033 5.54384C15.3123 5.50294 15.4008 5.72014 15.4296 5.79765C15.463 5.89271 15.478 6.01151 15.4969 6.11408C15.5174 6.22576 15.5603 6.36478 15.5732 6.47541C15.6069 6.76359 15.6018 7.10904 15.5756 7.39783C15.5658 7.50579 15.5075 7.62874 15.4835 7.73185L15.4779 7.77898C15.4407 7.72841 15.4503 7.55703 15.4451 7.48569C15.4317 7.48693 15.4088 7.53621 15.3778 7.56434C15.3359 7.57239 15.3397 7.55753 15.2995 7.53915C15.1594 7.4751 15.1371 7.59292 15.0976 7.69471L15.074 7.6927C15.1439 7.46554 15.1488 7.3083 15.19 7.08669C15.2523 6.75085 15.2468 6.49542 15.253 6.1585Z" fill="#FB7D1B"/>
<path id="Vector_22" d="M15.4194 5.81738L15.4296 5.79761C15.463 5.89267 15.478 6.01147 15.4969 6.11404C15.5174 6.22572 15.5603 6.36474 15.5732 6.47537C15.6069 6.76355 15.6018 7.109 15.5756 7.39779C15.5658 7.50574 15.5075 7.6287 15.4835 7.73181C15.476 7.6173 15.4901 7.48529 15.4871 7.36812C15.4784 7.02483 15.4759 6.6815 15.4724 6.33819C15.4702 6.21458 15.4245 6.09898 15.4053 5.9787C15.3968 5.92591 15.4443 5.87443 15.4194 5.81738Z" fill="#C3A390"/>
<path id="Vector_23" d="M15.2529 6.1585C15.2443 6.08211 15.2439 5.98176 15.2364 5.90186C15.2278 5.81021 15.1903 5.62429 15.2033 5.54384C15.3122 5.50294 15.4008 5.72014 15.4296 5.79765L15.4194 5.81742C15.3755 5.73925 15.3446 5.65034 15.2706 5.62925L15.2607 5.62648C15.2036 5.68568 15.3126 6.03075 15.2529 6.1585Z" fill="#A89797"/>
<path id="Vector_24" d="M9.18601 1.86533C9.70433 1.83077 9.77875 2.59654 9.25817 2.71974C9.14798 2.73041 9.07318 2.7106 8.97758 2.6422C8.79683 2.51287 8.76913 2.14405 8.88947 1.96926C8.9446 1.8892 9.0896 1.87338 9.18601 1.86533Z" fill="#FB7D1B"/>
<path id="Vector_25" d="M7.31614 3.37731C7.72053 3.37162 7.8498 3.82671 7.68663 4.12449C7.58033 4.18395 7.42318 4.22787 7.36208 4.26935C7.11959 4.2673 6.86781 3.96926 6.97502 3.72938C7.04748 3.56727 7.15251 3.44877 7.31614 3.37731Z" fill="#FB7D1B"/>
<path id="Vector_26" d="M14.3303 3.9674C14.8652 3.92153 14.9265 4.60958 14.5655 4.70345C14.1235 4.83785 13.9228 4.15572 14.3303 3.9674Z" fill="#FB7D1B"/>
<path id="Vector_27" d="M10.4107 19.128C10.5747 19.104 13.0699 19.0934 13.2169 19.134L13.2231 19.1446L13.2089 19.1461C13.1416 19.1392 12.9041 19.1745 12.8199 19.179C12.634 19.1887 12.4541 19.1947 12.2675 19.1942C11.761 19.1927 11.2531 19.203 10.7471 19.184C10.7214 19.183 10.6055 19.1765 10.5843 19.1703C10.5023 19.1463 10.5083 19.1308 10.4107 19.128Z" fill="#E8D8DC" fill-opacity="0.988235"/>
<path id="Vector_28" d="M15.3299 20.1642C15.3979 20.2748 15.6536 20.7339 15.5548 20.8362C15.3869 20.9213 14.0887 20.8788 13.8221 20.8774L13.8176 20.8622C13.8063 20.8704 13.7986 20.8753 13.7889 20.8857C13.7006 20.7761 13.5959 20.5288 13.6121 20.3795L13.6127 20.3743C13.6753 20.4675 13.7126 20.7079 13.7811 20.805C13.8045 20.8233 13.8834 20.8281 13.9099 20.8275C14.4368 20.8146 14.9559 20.8033 15.4826 20.8367C15.4833 20.5532 15.3228 20.2935 15.3299 20.1642Z" fill="#A89797" fill-opacity="0.988235"/>
<path id="Vector_29" d="M9.76199 20.8404C9.56264 20.8932 9.21858 20.8915 9.00978 20.8942C8.87027 20.8959 8.14894 20.9235 8.06743 20.8308C8.0461 20.7759 8.15355 20.541 8.19844 20.5222C8.21286 20.6112 8.13197 20.7462 8.16899 20.8221C8.33007 20.8351 8.56423 20.8233 8.7298 20.82C8.95763 20.8161 9.18552 20.817 9.4133 20.8228C9.51239 20.8251 9.67015 20.8254 9.76199 20.8404Z" fill="#A89797" fill-opacity="0.976471"/>
<path id="Vector_30" d="M10.7916 8.80951C10.8659 8.86264 10.8911 8.83013 10.9255 8.86979L10.9138 8.88829C10.8773 8.89299 10.8034 8.8927 10.7721 8.87051C10.7672 8.83561 10.7686 8.84604 10.7916 8.80951Z" fill="black" fill-opacity="0.054902"/>
<path id="Vector_31" d="M10.4125 11.7415C10.4572 11.7406 10.5805 11.7383 10.6134 11.7654C10.5564 11.7708 10.4755 11.7829 10.4228 11.7651L10.4125 11.7415Z" fill="black" fill-opacity="0.0666667"/>
</g></svg>